# xmcd
#
# Track frame offsets:
#	150
#	23152
#	36639
#	54235
#	76666
#	98888
#	116638
#	137091
#	151023
#	167825
#	181562
#	194185
#	212882
#	233084
#
# Disc length: 3412 seconds
#
# Revision: 117337509
# Processed by: cddbd v1.5.1PL0 Copyright (c) Steve Scherf et al.
# Submitted via: EasyCDDAExtractor 8.0.2.1
#
DISCID=b50d520e
DTITLE=Missy Elliott - Under Construction
DYEAR=2002
DGENRE=Hip-Hop
TTITLE0=Intro - Go To The Floor
TTITLE1=Bring The Pain (Featuring Method Man)
TTITLE2=Gossip Folks (Featuring Ludacris)
TTITLE3=Work It
TTITLE4=Back In The Day (Featuring Jay-Z)
TTITLE5=Funky Fresh Dressed (Featuring Ms. Jade)
TTITLE6=P***ycat
TTITLE7=Nothing Out There For Me (Featuring Beyonce Knowles)
TTITLE8=Slide
TTITLE9=Play That Beat
TTITLE10=Ain't That Funny
TTITLE11=Hot
TTITLE12=Can You Hear Me (Featuring TLC)
TTITLE13=Work It (Remix) (Featuring 50 Cent)
EXTD=ID3G:   7 YEAR: 2002
EXTT0=
EXTT1=
EXTT2=
EXTT3=
EXTT4=
EXTT5=
EXTT6=
EXTT7=
EXTT8=
EXTT9=
EXTT10=
EXTT11=
EXTT12=
EXTT13=
PLAYORDER=
